# xmcd
#
# Track frame offsets:
# 150
# 22428
# 45123
# 70471
# 89401
# 110586
# 133581
# 157618
# 183603
# 199326
# 219296
# 244238
# 261144
# 282211
#
# Disc length: 3968 seconds
#
# Revision: 0
# Processed by: cddbd v1.5.2PL0 Copyright (c) Steve Scherf et al.
# Submitted via: Audion 3.0.2 (http://www.panic.com/audion/)
#
DISCID=cc0f7e0e
DTITLE=audioslave - audioslave
DYEAR=1900
DGENRE=
TTITLE0=like a stone
TTITLE1=a
TTITLE2=a
TTITLE3=a
TTITLE4=a
TTITLE5=a
TTITLE6=a
TTITLE7=s
TTITLE8=w
TTITLE9=3
TTITLE10=4
TTITLE11=44
TTITLE12=33
TTITLE13=33
EXTD=
EXTT0=
EXTT1=
EXTT2=
EXTT3=
EXTT4=
EXTT5=
EXTT6=
EXTT7=
EXTT8=
EXTT9=
EXTT10=
EXTT11=
EXTT12=
EXTT13=
PLAYORDER=
